<?xml version="1.0" encoding="UTF-8" standalone="no"?>
<svg
   width="700pt"
   height="700pt"
   version="1.1"
   viewBox="0 0 700 700"
   id="svg164"
   sodipodi:docname="back.svg"
   inkscape:version="1.1.1 (3bf5ae0d25, 2021-09-20)"
   xmlns:inkscape="http://www.inkscape.org/namespaces/inkscape"
   xmlns:sodipodi="http://sodipodi.sourceforge.net/DTD/sodipodi-0.dtd"
   xmlns="http://www.w3.org/2000/svg"
   xmlns:svg="http://www.w3.org/2000/svg">
  <sodipodi:namedview
     id="namedview166"
     pagecolor="#ffffff"
     bordercolor="#666666"
     borderopacity="1.0"
     inkscape:pageshadow="2"
     inkscape:pageopacity="0.0"
     inkscape:pagecheckerboard="0"
     inkscape:document-units="pt"
     showgrid="false"
     inkscape:zoom="0.44623489"
     inkscape:cx="189.36216"
     inkscape:cy="466.12223"
     inkscape:window-width="1584"
     inkscape:window-height="745"
     inkscape:window-x="8"
     inkscape:window-y="40"
     inkscape:window-maximized="0"
     inkscape:current-layer="g162" />
  <defs
     id="defs80">
    <symbol
       id="z"
       overflow="visible">
      <path
         d="m2.8906-0.17188c-0.14844 0.074219-0.30469 0.13281-0.46875 0.17188-0.15625 0.039062-0.32422 0.0625-0.5 0.0625-0.52344 0-0.9375-0.14453-1.25-0.4375-0.30469-0.28906-0.45312-0.6875-0.45312-1.1875 0-0.50781 0.14844-0.91016 0.45312-1.2031 0.3125-0.28906 0.72656-0.4375 1.25-0.4375 0.17578 0 0.34375 0.023437 0.5 0.0625 0.16406 0.042969 0.32031 0.10156 0.46875 0.17188v0.65625c-0.15625-0.10156-0.30859-0.17578-0.45312-0.21875-0.14844-0.050781-0.29688-0.078125-0.45312-0.078125-0.29297 0-0.52344 0.09375-0.6875 0.28125-0.16797 0.17969-0.25 0.43359-0.25 0.76562 0 0.32422 0.082031 0.57812 0.25 0.76562 0.16406 0.17969 0.39453 0.26562 0.6875 0.26562 0.15625 0 0.30469-0.019531 0.45312-0.0625 0.14453-0.050781 0.29688-0.12891 0.45312-0.23438z"
         id="path2" />
    </symbol>
    <symbol
       id="c"
       overflow="visible">
      <path
         d="m2.1094-1.7188c-0.0625-0.03125-0.13281-0.050781-0.20312-0.0625-0.0625-0.019531-0.125-0.03125-0.1875-0.03125-0.1875 0-0.33984 0.0625-0.45312 0.1875-0.10547 0.125-0.15625 0.30469-0.15625 0.53125v1.0938h-0.75v-2.3594h0.75v0.39062c0.10156-0.15625 0.21875-0.26953 0.34375-0.34375 0.125-0.070312 0.27344-0.10938 0.45312-0.10938 0.019531 0 0.046875 0.007813 0.078125 0.015625 0.03125 0 0.070313 0.007812 0.125 0.015625z"
         id="path5" />
    </symbol>
    <symbol
       id="a"
       overflow="visible">
      <path
         d="m2.7188-1.1875v0.21875h-1.7656c0.019531 0.17969 0.082031 0.3125 0.1875 0.40625 0.11328 0.085938 0.26953 0.125 0.46875 0.125 0.15625 0 0.31641-0.019531 0.48438-0.0625 0.16406-0.050781 0.33594-0.125 0.51562-0.21875v0.57812c-0.17969 0.0625-0.35938 0.10938-0.54688 0.14062-0.17969 0.039062-0.35547 0.0625-0.53125 0.0625-0.42969 0-0.76172-0.10938-1-0.32812-0.23047-0.21875-0.34375-0.51953-0.34375-0.90625 0-0.38281 0.11328-0.6875 0.34375-0.90625 0.22656-0.22656 0.55078-0.34375 0.96875-0.34375 0.36328 0 0.65625 0.11719 0.875 0.34375 0.22656 0.21875 0.34375 0.51562 0.34375 0.89062zm-0.78125-0.25c0-0.14453-0.042969-0.25781-0.125-0.34375-0.085938-0.09375-0.19531-0.14062-0.32812-0.14062-0.14844 0-0.26562 0.042969-0.35938 0.125-0.085938 0.085937-0.13672 0.20312-0.15625 0.35938z"
         id="path8" />
    </symbol>
    <symbol
       id="l"
       overflow="visible">
      <path
         d="m1.4219-1.0625c-0.15625 0-0.27734 0.027344-0.35938 0.078125-0.074219 0.054687-0.10938 0.13281-0.10938 0.23438 0 0.09375 0.03125 0.17188 0.09375 0.23438 0.0625 0.054687 0.14844 0.078125 0.26562 0.078125 0.13281 0 0.25-0.050781 0.34375-0.15625 0.10156-0.10156 0.15625-0.22656 0.15625-0.375v-0.09375zm1.1562-0.28125v1.3438h-0.76562v-0.34375c-0.10547 0.13672-0.21875 0.24219-0.34375 0.3125-0.125 0.0625-0.27734 0.09375-0.45312 0.09375-0.25 0-0.45312-0.066406-0.60938-0.20312-0.14844-0.14453-0.21875-0.33203-0.21875-0.5625 0-0.28125 0.09375-0.48438 0.28125-0.60938 0.1875-0.13281 0.48438-0.20312 0.89062-0.20312h0.45312v-0.046875c0-0.125-0.046875-0.21094-0.14062-0.26562-0.09375-0.0625-0.24219-0.09375-0.4375-0.09375-0.16797 0-0.32031 0.023437-0.45312 0.0625-0.13672 0.03125-0.26562 0.078125-0.39062 0.14062v-0.57812c0.16406-0.039063 0.32812-0.070313 0.48438-0.09375 0.16406-0.019531 0.32812-0.03125 0.48438-0.03125 0.42578 0 0.73438 0.089844 0.92188 0.26562 0.19531 0.16797 0.29688 0.4375 0.29688 0.8125z"
         id="path11" />
    </symbol>
    <symbol
       id="b"
       overflow="visible">
      <path
         d="m1.1875-3.0312v0.67188h0.78125v0.54688h-0.78125v1c0 0.10547 0.019531 0.17969 0.0625 0.21875 0.039062 0.03125 0.12891 0.046875 0.26562 0.046875h0.375v0.54688h-0.64062c-0.30469 0-0.51562-0.0625-0.64062-0.1875-0.11719-0.125-0.17188-0.33203-0.17188-0.625v-1h-0.375v-0.54688h0.375v-0.67188z"
         id="path14" />
    </symbol>
    <symbol
       id="k"
       overflow="visible">
      <path
         d="m1.9688-2.0156v-1.2656h0.75v3.2812h-0.75v-0.34375c-0.10547 0.14844-0.21875 0.25-0.34375 0.3125s-0.27344 0.09375-0.4375 0.09375c-0.29297 0-0.53125-0.11328-0.71875-0.34375-0.1875-0.22656-0.28125-0.52344-0.28125-0.89062 0-0.36328 0.09375-0.66016 0.28125-0.89062 0.1875-0.23828 0.42578-0.35938 0.71875-0.35938 0.16406 0 0.3125 0.039063 0.4375 0.10938 0.125 0.0625 0.23828 0.16406 0.34375 0.29688zm-0.5 1.5312c0.16406 0 0.28906-0.054687 0.375-0.17188 0.082031-0.125 0.125-0.29688 0.125-0.51562 0-0.22656-0.042969-0.39844-0.125-0.51562-0.085938-0.125-0.21094-0.1875-0.375-0.1875-0.15625 0-0.28125 0.0625-0.375 0.1875-0.085938 0.11719-0.125 0.28906-0.125 0.51562 0 0.21875 0.039062 0.39062 0.125 0.51562 0.09375 0.11719 0.21875 0.17188 0.375 0.17188z"
         id="path17" />
    </symbol>
    <symbol
       id="j"
       overflow="visible">
      <path
         d="m1.625-0.48438c0.15625 0 0.27344-0.054687 0.35938-0.17188 0.082031-0.125 0.125-0.29688 0.125-0.51562 0-0.22656-0.042969-0.39844-0.125-0.51562-0.085937-0.125-0.20312-0.1875-0.35938-0.1875-0.16797 0-0.29688 0.0625-0.39062 0.1875-0.085937 0.11719-0.125 0.28906-0.125 0.51562 0 0.21875 0.039063 0.39062 0.125 0.51562 0.09375 0.11719 0.22266 0.17188 0.39062 0.17188zm-0.51562-1.5312c0.10156-0.13281 0.21875-0.23438 0.34375-0.29688 0.13281-0.070312 0.28125-0.10938 0.4375-0.10938 0.28906 0 0.53125 0.12109 0.71875 0.35938 0.1875 0.23047 0.28125 0.52734 0.28125 0.89062 0 0.36719-0.09375 0.66406-0.28125 0.89062-0.1875 0.23047-0.42969 0.34375-0.71875 0.34375-0.15625 0-0.30469-0.03125-0.4375-0.09375-0.125-0.070312-0.24219-0.17578-0.34375-0.3125v0.34375h-0.75v-3.2812h0.75z"
         id="path20" />
    </symbol>
    <symbol
       id="i"
       overflow="visible">
      <path
         d="m0.046875-2.3594h0.76562l0.625 1.5938 0.54688-1.5938h0.75l-1 2.5781c-0.09375 0.25781-0.21094 0.44141-0.34375 0.54688-0.13672 0.11328-0.30859 0.17188-0.51562 0.17188h-0.4375v-0.5h0.23438c0.125 0 0.21094-0.023438 0.26562-0.0625 0.0625-0.042969 0.10938-0.11719 0.14062-0.21875l0.03125-0.0625z"
         id="path23" />
    </symbol>
    <symbol
       id="h"
       overflow="visible">
      <path
         d="m1.9219 0.0625h-0.0625c-0.52344 0-0.92969-0.14062-1.2188-0.42188-0.28125-0.28906-0.42188-0.69141-0.42188-1.2031 0-0.50781 0.14062-0.91016 0.42188-1.2031 0.28906-0.28906 0.6875-0.4375 1.1875-0.4375 0.50781 0 0.90625 0.14844 1.1875 0.4375 0.28906 0.28125 0.4375 0.68359 0.4375 1.2031 0 0.35547-0.078125 0.66406-0.23438 0.92188-0.14844 0.25-0.35938 0.4375-0.64062 0.5625l0.625 0.70312h-0.76562zm-0.09375-2.6719c-0.24219 0-0.43359 0.09375-0.57812 0.28125-0.13672 0.17969-0.20312 0.43359-0.20312 0.76562 0 0.33594 0.066406 0.58984 0.20312 0.76562 0.13281 0.17969 0.32812 0.26562 0.57812 0.26562s0.44141-0.085938 0.57812-0.26562c0.13281-0.1875 0.20312-0.44141 0.20312-0.76562 0-0.33203-0.070313-0.58594-0.20312-0.76562-0.13672-0.1875-0.32812-0.28125-0.57812-0.28125z"
         id="path26" />
    </symbol>
    <symbol
       id="y"
       overflow="visible">
      <path
         d="m1.8281-2.6094c-0.24219 0-0.43359 0.09375-0.57812 0.28125-0.13672 0.17969-0.20312 0.43359-0.20312 0.76562 0 0.32422 0.066406 0.57812 0.20312 0.76562 0.14453 0.17969 0.33594 0.26562 0.57812 0.26562 0.25 0 0.44141-0.085938 0.57812-0.26562 0.13281-0.1875 0.20312-0.44141 0.20312-0.76562 0-0.33203-0.070313-0.58594-0.20312-0.76562-0.13672-0.1875-0.32812-0.28125-0.57812-0.28125zm0-0.59375c0.50781 0 0.90625 0.14844 1.1875 0.4375 0.28906 0.29297 0.4375 0.69531 0.4375 1.2031 0 0.5-0.14844 0.89844-0.4375 1.1875-0.28125 0.29297-0.67969 0.4375-1.1875 0.4375-0.5 0-0.89844-0.14453-1.1875-0.4375-0.28125-0.28906-0.42188-0.6875-0.42188-1.1875 0-0.50781 0.14062-0.91016 0.42188-1.2031 0.28906-0.28906 0.6875-0.4375 1.1875-0.4375z"
         id="path29" />
    </symbol>
    <symbol
       id="g"
       overflow="visible">
      <path
         d="m0.39062-3.1406h0.8125v2.5312h1.4219v0.60938h-2.2344z"
         id="path32" />
    </symbol>
    <symbol
       id="x"
       overflow="visible">
      <path
         d="m1.6562-1.9219c0.125 0 0.21875-0.023437 0.28125-0.078125 0.070312-0.0625 0.10938-0.14844 0.10938-0.26562 0-0.10156-0.039063-0.17969-0.10938-0.23438-0.0625-0.0625-0.15625-0.09375-0.28125-0.09375h-0.45312v0.67188zm0.03125 1.375c0.15625 0 0.27344-0.035156 0.35938-0.10938 0.082031-0.070312 0.125-0.17578 0.125-0.3125 0-0.13281-0.042969-0.23438-0.125-0.29688-0.085937-0.070313-0.20312-0.10938-0.35938-0.10938h-0.48438v0.82812zm0.75-1.1406c0.17578 0.054688 0.3125 0.14844 0.40625 0.28125 0.09375 0.13672 0.14062 0.30469 0.14062 0.5 0 0.30469-0.10547 0.53125-0.3125 0.6875-0.19922 0.14844-0.51172 0.21875-0.9375 0.21875h-1.3438v-3.1406h1.2188c0.4375 0 0.75391 0.070313 0.95312 0.20312 0.19531 0.125 0.29688 0.33594 0.29688 0.625 0 0.15625-0.039063 0.28906-0.10938 0.39062-0.074219 0.10547-0.17969 0.18359-0.3125 0.23438z"
         id="path35" />
    </symbol>
    <symbol
       id="e"
       overflow="visible">
      <path
         d="m0.39062-3.1406h0.8125v3.1406h-0.8125z"
         id="path38" />
    </symbol>
    <symbol
       id="f"
       overflow="visible">
      <path
         d="m0.39062-3.1406h0.90625l1.1406 2.1562v-2.1562h0.78125v3.1406h-0.90625l-1.1406-2.1562v2.1562h-0.78125z"
         id="path41" />
    </symbol>
    <symbol
       id="w"
       overflow="visible">
      <path
         d="m2.5781-3.0469v0.67188c-0.16797-0.082031-0.33594-0.14062-0.5-0.17188-0.16797-0.039063-0.32422-0.0625-0.46875-0.0625-0.1875 0-0.32812 0.027344-0.42188 0.078125-0.09375 0.054688-0.14062 0.13672-0.14062 0.25 0 0.085938 0.03125 0.15234 0.09375 0.20312 0.0625 0.042969 0.17578 0.078125 0.34375 0.10938l0.34375 0.078125c0.34375 0.0625 0.58594 0.16797 0.73438 0.3125 0.15625 0.14844 0.23438 0.35156 0.23438 0.60938 0 0.34375-0.10547 0.60547-0.3125 0.78125-0.21094 0.16797-0.52344 0.25-0.9375 0.25-0.21094 0-0.41406-0.023438-0.60938-0.0625-0.19922-0.03125-0.39844-0.085938-0.59375-0.17188v-0.67188c0.19531 0.10547 0.39062 0.18359 0.57812 0.23438 0.1875 0.054687 0.36719 0.078125 0.54688 0.078125 0.17578 0 0.3125-0.023438 0.40625-0.078125 0.09375-0.0625 0.14062-0.14844 0.14062-0.26562 0-0.09375-0.039063-0.16406-0.10938-0.21875-0.0625-0.050781-0.1875-0.097656-0.375-0.14062l-0.3125-0.078125c-0.3125-0.0625-0.54297-0.16406-0.6875-0.3125-0.14844-0.14453-0.21875-0.34375-0.21875-0.59375 0-0.32031 0.097656-0.56641 0.29688-0.73438 0.20703-0.16406 0.5-0.25 0.875-0.25 0.17578 0 0.35156 0.015625 0.53125 0.046875 0.1875 0.023438 0.375 0.058594 0.5625 0.10938z"
         id="path44" />
    </symbol>
    <symbol
       id="v"
       overflow="visible">
      <path
         d="m2.2969-0.57812h-1.2656l-0.1875 0.57812h-0.82812l1.1719-3.1406h0.96875l1.1562 3.1406h-0.8125zm-1.0625-0.57812h0.85938l-0.42188-1.25z"
         id="path47" />
    </symbol>
    <symbol
       id="u"
       overflow="visible">
      <path
         d="m0.39062-3.1406h1.0312l0.71875 1.6719 0.71875-1.6719h1.0312v3.1406h-0.76562v-2.2969l-0.71875 1.6875h-0.51562l-0.71875-1.6875v2.2969h-0.78125z"
         id="path50" />
    </symbol>
    <symbol
       id="t"
       overflow="visible">
      <path
         d="m1.9219-3.2812v0.5h-0.42188c-0.10547 0-0.18359 0.023438-0.23438 0.0625-0.042969 0.03125-0.0625 0.10156-0.0625 0.20312v0.15625h0.65625v0.54688h-0.65625v1.8125h-0.75v-1.8125h-0.375v-0.54688h0.375v-0.15625c0-0.25781 0.070313-0.45312 0.21875-0.57812 0.14453-0.125 0.36719-0.1875 0.67188-0.1875z"
         id="path53" />
    </symbol>
    <symbol
       id="d"
       overflow="visible">
      <path
         d="m1.4844-1.875c-0.16797 0-0.29688 0.0625-0.39062 0.1875-0.085938 0.11719-0.125 0.28906-0.125 0.51562 0 0.21875 0.039062 0.39062 0.125 0.51562 0.09375 0.11719 0.22266 0.17188 0.39062 0.17188 0.16406 0 0.28906-0.054687 0.375-0.17188 0.082031-0.125 0.125-0.29688 0.125-0.51562 0-0.22656-0.042969-0.39844-0.125-0.51562-0.085937-0.125-0.21094-0.1875-0.375-0.1875zm0-0.54688c0.40625 0 0.72266 0.10938 0.95312 0.32812 0.22656 0.21875 0.34375 0.52734 0.34375 0.92188 0 0.38672-0.11719 0.6875-0.34375 0.90625-0.23047 0.21875-0.54688 0.32812-0.95312 0.32812s-0.72656-0.10938-0.95312-0.32812c-0.23047-0.21875-0.34375-0.51953-0.34375-0.90625 0-0.39453 0.11328-0.70312 0.34375-0.92188 0.22656-0.21875 0.54688-0.32812 0.95312-0.32812z"
         id="path56" />
    </symbol>
    <symbol
       id="s"
       overflow="visible">
      <path
         d="m2.5469-1.9688c0.09375-0.14453 0.20312-0.25391 0.32812-0.32812 0.13281-0.082031 0.28516-0.125 0.45312-0.125 0.26953 0 0.47266 0.085937 0.60938 0.25 0.14453 0.16797 0.21875 0.41406 0.21875 0.73438v1.4375h-0.76562v-1.2344-0.046875c0.007813-0.019531 0.015625-0.050781 0.015625-0.09375 0-0.16406-0.027344-0.28516-0.078125-0.35938-0.054687-0.070313-0.13281-0.10938-0.23438-0.10938-0.14844 0-0.26172 0.058594-0.34375 0.17188-0.074219 0.11719-0.10938 0.28906-0.10938 0.51562v1.1562h-0.76562v-1.2344c0-0.25781-0.027344-0.42578-0.078125-0.5-0.042969-0.070313-0.12109-0.10938-0.23438-0.10938-0.13672 0-0.24609 0.0625-0.32812 0.1875-0.085937 0.11719-0.125 0.28125-0.125 0.5v1.1562h-0.75v-2.3594h0.75v0.34375c0.09375-0.13281 0.19531-0.23438 0.3125-0.29688 0.125-0.070312 0.25781-0.10938 0.40625-0.10938 0.16406 0 0.3125 0.042969 0.4375 0.125 0.125 0.085937 0.21875 0.19531 0.28125 0.32812z"
         id="path59" />
    </symbol>
    <symbol
       id="r"
       overflow="visible">
      <path
         d="m2.7344-1.4375v1.4375h-0.76562v-1.0938c0-0.20703-0.007812-0.34766-0.015625-0.42188 0-0.082031-0.011719-0.14062-0.03125-0.17188-0.03125-0.050781-0.074219-0.085938-0.125-0.10938-0.054687-0.03125-0.10938-0.046875-0.17188-0.046875-0.15625 0-0.28125 0.0625-0.375 0.1875-0.09375 0.11719-0.14062 0.28125-0.14062 0.5v1.1562h-0.75v-3.2812h0.75v1.2656c0.11328-0.13281 0.23438-0.23438 0.35938-0.29688 0.13281-0.070312 0.28125-0.10938 0.4375-0.10938 0.26953 0 0.47266 0.085937 0.60938 0.25 0.14453 0.16797 0.21875 0.41406 0.21875 0.73438z"
         id="path62" />
    </symbol>
    <symbol
       id="q"
       overflow="visible">
      <path
         d="m0.34375-0.92188v-1.4375h0.75v0.23438 0.48438 0.39062c0 0.1875 0.003906 0.32422 0.015625 0.40625 0.007813 0.085938 0.023437 0.14844 0.046875 0.1875 0.03125 0.042969 0.070312 0.078125 0.125 0.10938 0.050781 0.023437 0.10938 0.03125 0.17188 0.03125 0.15625 0 0.27344-0.054687 0.35938-0.17188 0.09375-0.125 0.14062-0.28906 0.14062-0.5v-1.1719h0.75v2.3594h-0.75v-0.34375c-0.11719 0.13672-0.23438 0.24219-0.35938 0.3125-0.125 0.0625-0.26562 0.09375-0.42188 0.09375-0.27344 0-0.48047-0.082031-0.625-0.25-0.13672-0.16406-0.20312-0.41016-0.20312-0.73438z"
         id="path65" />
    </symbol>
    <symbol
       id="p"
       overflow="visible">
      <path
         d="m2.7344-1.4375v1.4375h-0.76562v-1.0938c0-0.20703-0.007812-0.34766-0.015625-0.42188 0-0.082031-0.011719-0.14062-0.03125-0.17188-0.03125-0.050781-0.074219-0.085938-0.125-0.10938-0.054687-0.03125-0.10938-0.046875-0.17188-0.046875-0.15625 0-0.28125 0.0625-0.375 0.1875-0.09375 0.11719-0.14062 0.28125-0.14062 0.5v1.1562h-0.75v-2.3594h0.75v0.34375c0.11328-0.13281 0.23438-0.23438 0.35938-0.29688 0.13281-0.070312 0.28125-0.10938 0.4375-0.10938 0.26953 0 0.47266 0.085937 0.60938 0.25 0.14453 0.16797 0.21875 0.41406 0.21875 0.73438z"
         id="path68" />
    </symbol>
    <symbol
       id="o"
       overflow="visible">
      <path
         d="m0.39062-3.1406h1.3438c0.40625 0 0.71094 0.089844 0.92188 0.26562 0.21875 0.17969 0.32812 0.42969 0.32812 0.75 0 0.33594-0.10938 0.58984-0.32812 0.76562-0.21094 0.17969-0.51562 0.26562-0.92188 0.26562h-0.53125v1.0938h-0.8125zm0.8125 0.57812v0.89062h0.45312c0.15625 0 0.27344-0.035156 0.35938-0.10938 0.082031-0.082031 0.125-0.19531 0.125-0.34375 0-0.13281-0.042969-0.23828-0.125-0.3125-0.085937-0.082031-0.20312-0.125-0.35938-0.125z"
         id="path71" />
    </symbol>
    <symbol
       id="n"
       overflow="visible">
      <path
         d="m0.35938-2.3594h0.75v2.3125c0 0.32031-0.078125 0.56641-0.23438 0.73438-0.14844 0.16406-0.35938 0.25-0.64062 0.25h-0.375v-0.5h0.125c0.14453 0 0.24219-0.039062 0.29688-0.10938 0.050781-0.0625 0.078125-0.1875 0.078125-0.375zm0-0.92188h0.75v0.625h-0.75z"
         id="path74" />
    </symbol>
    <symbol
       id="m"
       overflow="visible">
      <path
         d="m2.2656-2.2812v0.60938c-0.10547-0.070313-0.21094-0.125-0.3125-0.15625-0.10547-0.03125-0.21094-0.046875-0.3125-0.046875-0.21094 0-0.375 0.0625-0.5 0.1875-0.11719 0.125-0.17188 0.29688-0.17188 0.51562s0.054688 0.39062 0.17188 0.51562c0.125 0.11719 0.28906 0.17188 0.5 0.17188 0.11328 0 0.22266-0.015625 0.32812-0.046875 0.11328-0.03125 0.21094-0.082031 0.29688-0.15625v0.625c-0.11719 0.042969-0.23438 0.070312-0.35938 0.09375-0.11719 0.019531-0.23438 0.03125-0.35938 0.03125-0.42969 0-0.76172-0.10938-1-0.32812-0.24219-0.21875-0.35938-0.51953-0.35938-0.90625 0-0.39453 0.11719-0.70312 0.35938-0.92188 0.23828-0.21875 0.57031-0.32812 1-0.32812 0.125 0 0.24219 0.015625 0.35938 0.046875 0.125 0.023438 0.24219 0.054688 0.35938 0.09375z"
         id="path77" />
    </symbol>
  </defs>
  <g
     id="g162">
    <path
       d="m32.801 306.41 365.97 226.14c25.895 15.535 48.336-11.223 49.199-39.703v-419.48c-0.86328-27.621-23.305-54.379-49.199-38.84l-365.97 226.14c-24.168 6.043-24.168 38.84 0 45.746zm431.57 71.641h188.16c18.125 0 32.801-14.672 32.801-32.801v-124.29c0-18.125-14.672-32.801-32.801-32.801h-188.16zm235.64-32.801c0 25.895-21.578 47.473-47.473 47.473h-187.3l-2.5898 100.12c-0.86328 37.113-25.895 72.504-71.641 51.789l-363.38-225.28c-36.25-10.359-36.25-62.145 0-72.504l363.38-225.28c45.746-20.715 70.777 14.672 71.641 52.652l2.5898 99.262h187.3c25.895 0 47.473 21.578 47.473 47.473v124.29z"
       id="path82"
       style="stroke:#1cec96;stroke-opacity:1;fill:#a9ff00;fill-opacity:1"
       inkscape:export-filename="/mnt/Arquivos/icons/back.png"
       inkscape:export-xdpi="96"
       inkscape:export-ydpi="96" />
    <path
       style="fill:#a9ff00;fill-opacity:1;stroke:#1cec96;stroke-width:23.419;stroke-linejoin:bevel;stroke-opacity:1"
       d="M 540.07431,711.74966 C 536.37671,710.12987 425.9528,642.41831 294.68785,561.27954 163.4229,480.14074 50.495718,410.62959 43.738557,406.8103 14.569512,390.32336 14.074135,364.14392 42.653848,349.48605 48.775066,346.34663 157.14818,279.8556 283.48299,201.72822 409.8178,123.60084 519.72149,55.830949 527.7134,51.128457 c 25.81528,-15.189866 44.90812,-9.960973 59.42133,16.273514 l 6.72292,12.152544 V 377.60382 675.65313 l -5.94084,11.20487 c -7.09936,13.38987 -13.66272,19.87729 -24.83114,24.54373 -9.96814,4.16496 -14.15347,4.22824 -23.01136,0.34793 z"
       id="path7388"
       transform="scale(0.75)" />
    <path
       style="fill:#a9ff00;fill-opacity:1;stroke:#1cec96;stroke-width:23.419;stroke-linejoin:bevel;stroke-opacity:1"
       d="M 621.8698,377.60382 V 253.22986 h 128.94518 c 124.32345,0 129.25861,0.15991 137.68998,4.46126 4.80962,2.4537 11.57641,8.17371 15.03728,12.71115 l 6.2925,8.24989 v 98.95166 98.95166 l -6.46277,8.47314 c -13.21154,17.32121 -8.89074,16.84458 -153.20651,16.89995 l -128.29566,0.0492 z"
       id="path7466"
       transform="scale(0.75)" />
  </g>
</svg>
