<?xml version="1.0" encoding="UTF-8" standalone="no"?>
<svg
   width="700pt"
   height="700pt"
   version="1.1"
   viewBox="0 0 700 700"
   id="svg103"
   sodipodi:docname="tech-heart.svg"
   inkscape:version="1.1.1 (3bf5ae0d25, 2021-09-20)"
   xmlns:inkscape="http://www.inkscape.org/namespaces/inkscape"
   xmlns:sodipodi="http://sodipodi.sourceforge.net/DTD/sodipodi-0.dtd"
   xmlns="http://www.w3.org/2000/svg"
   xmlns:svg="http://www.w3.org/2000/svg">
  <sodipodi:namedview
     id="namedview105"
     pagecolor="#ffffff"
     bordercolor="#666666"
     borderopacity="1.0"
     inkscape:pageshadow="2"
     inkscape:pageopacity="0.0"
     inkscape:pagecheckerboard="0"
     inkscape:document-units="pt"
     showgrid="false"
     inkscape:zoom="0.63107143"
     inkscape:cx="468.25127"
     inkscape:cy="340.69043"
     inkscape:window-width="1584"
     inkscape:window-height="745"
     inkscape:window-x="8"
     inkscape:window-y="40"
     inkscape:window-maximized="0"
     inkscape:current-layer="svg103" />
  <defs
     id="defs41">
    <symbol
       id="m"
       overflow="visible">
      <path
         d="m30.25-1.8125c-1.5625 0.8125-3.1875 1.4219-4.875 1.8281-1.6875 0.41406-3.4492 0.625-5.2812 0.625-5.4922 0-9.8398-1.5312-13.047-4.5938-3.1992-3.0703-4.7969-7.2266-4.7969-12.469 0-5.2578 1.5977-9.4219 4.7969-12.484 3.207-3.0703 7.5547-4.6094 13.047-4.6094 1.832 0 3.5938 0.21094 5.2812 0.625 1.6875 0.40625 3.3125 1.0156 4.875 1.8281v6.8125c-1.5742-1.0703-3.125-1.8594-4.6562-2.3594-1.5234-0.5-3.1328-0.75-4.8281-0.75-3.0234 0-5.4023 0.96875-7.1406 2.9062-1.7305 1.9375-2.5938 4.6172-2.5938 8.0312 0 3.3984 0.86328 6.0625 2.5938 8 1.7383 1.9375 4.1172 2.9062 7.1406 2.9062 1.6953 0 3.3047-0.25 4.8281-0.75 1.5312-0.5 3.082-1.2852 4.6562-2.3594z"
         id="path2" />
    </symbol>
    <symbol
       id="h"
       overflow="visible">
      <path
         d="m22.141-17.969c-0.69922-0.32031-1.3906-0.5625-2.0781-0.71875-0.67969-0.15625-1.3594-0.23438-2.0469-0.23438-2.0312 0-3.5938 0.65234-4.6875 1.9531-1.0938 1.3047-1.6406 3.168-1.6406 5.5938v11.375h-7.8906v-24.688h7.8906v4.0469c1.0078-1.6133 2.1719-2.7891 3.4844-3.5312 1.3203-0.75 2.8984-1.125 4.7344-1.125 0.26953 0 0.55469 0.015625 0.85938 0.046875 0.3125 0.023438 0.75781 0.070312 1.3438 0.14062z"
         id="path5" />
    </symbol>
    <symbol
       id="c"
       overflow="visible">
      <path
         d="m28.438-12.406v2.2344h-18.453c0.19531 1.8555 0.86719 3.2461 2.0156 4.1719 1.1445 0.92969 2.7422 1.3906 4.7969 1.3906 1.6641 0 3.3672-0.24219 5.1094-0.73438 1.7383-0.48828 3.5312-1.2344 5.375-2.2344v6.0781c-1.875 0.71094-3.7461 1.2422-5.6094 1.5938-1.8672 0.36328-3.7305 0.54688-5.5938 0.54688-4.4688 0-7.9453-1.1328-10.422-3.4062-2.4805-2.2695-3.7188-5.457-3.7188-9.5625 0-4.0195 1.2109-7.1875 3.6406-9.5 2.4375-2.3125 5.7852-3.4688 10.047-3.4688 3.8828 0 6.9883 1.1719 9.3125 3.5156 2.332 2.3359 3.5 5.4609 3.5 9.375zm-8.1094-2.625c0-1.5-0.4375-2.707-1.3125-3.625-0.875-0.92578-2.0156-1.3906-3.4219-1.3906-1.5312 0-2.7773 0.43359-3.7344 1.2969-0.96094 0.85547-1.5547 2.0938-1.7812 3.7188z"
         id="path8" />
    </symbol>
    <symbol
       id="b"
       overflow="visible">
      <path
         d="m14.859-11.109c-1.6484 0-2.8867 0.28125-3.7188 0.84375-0.82422 0.55469-1.2344 1.3711-1.2344 2.4531 0 1 0.33203 1.7891 1 2.3594 0.66406 0.5625 1.5938 0.84375 2.7812 0.84375 1.4883 0 2.7383-0.53125 3.75-1.5938 1.0195-1.0703 1.5312-2.4062 1.5312-4v-0.90625zm12.062-2.9844v14.094h-7.9531v-3.6562c-1.0625 1.5-2.2578 2.5938-3.5781 3.2812-1.3242 0.67578-2.9336 1.0156-4.8281 1.0156-2.5625 0-4.6406-0.74219-6.2344-2.2344-1.5938-1.5-2.3906-3.4375-2.3906-5.8125 0-2.8945 0.99219-5.0195 2.9844-6.375 2-1.3516 5.1289-2.0312 9.3906-2.0312h4.6562v-0.60938c0-1.25-0.49609-2.1641-1.4844-2.75-0.99219-0.58203-2.5273-0.875-4.6094-0.875-1.6875 0-3.2617 0.17188-4.7188 0.51562-1.4609 0.33594-2.8125 0.83984-4.0625 1.5156v-6.0156c1.6953-0.41406 3.3945-0.72656 5.0938-0.9375 1.707-0.21875 3.4141-0.32812 5.125-0.32812 4.4453 0 7.6602 0.88281 9.6406 2.6406 1.9766 1.7617 2.9688 4.6172 2.9688 8.5625z"
         id="path11" />
    </symbol>
    <symbol
       id="g"
       overflow="visible">
      <path
         d="m12.406-31.703v7.0156h8.1406v5.6406h-8.1406v10.469c0 1.1484 0.22656 1.9219 0.6875 2.3281 0.45703 0.40625 1.3633 0.60938 2.7188 0.60938h4.0469v5.6406h-6.7656c-3.1172 0-5.3242-0.64844-6.625-1.9531-1.3047-1.3008-1.9531-3.5078-1.9531-6.625v-10.469h-3.9219v-5.6406h3.9219v-7.0156z"
         id="path14" />
    </symbol>
    <symbol
       id="f"
       overflow="visible">
      <path
         d="m20.594-21.078v-13.234h7.9375v34.312h-7.9375v-3.5781c-1.0859 1.4609-2.2812 2.5273-3.5938 3.2031s-2.8281 1.0156-4.5469 1.0156c-3.043 0-5.543-1.207-7.5-3.625-1.9492-2.4141-2.9219-5.5312-2.9219-9.3438 0-3.8008 0.97266-6.9102 2.9219-9.3281 1.957-2.4258 4.457-3.6406 7.5-3.6406 1.707 0 3.2188 0.34375 4.5312 1.0312 1.3203 0.6875 2.5234 1.75 3.6094 3.1875zm-5.2031 15.984c1.6875 0 2.9727-0.61328 3.8594-1.8438 0.89453-1.2383 1.3438-3.0352 1.3438-5.3906 0-2.3516-0.44922-4.1445-1.3438-5.375-0.88672-1.2383-2.1719-1.8594-3.8594-1.8594-1.6797 0-2.9648 0.62109-3.8594 1.8594-0.88672 1.2305-1.3281 3.0234-1.3281 5.375 0 2.3555 0.44141 4.1523 1.3281 5.3906 0.89453 1.2305 2.1797 1.8438 3.8594 1.8438z"
         id="path17" />
    </symbol>
    <symbol
       id="e"
       overflow="visible">
      <path
         d="m16.938-5.0938c1.6875 0 2.9727-0.61328 3.8594-1.8438 0.89453-1.2383 1.3438-3.0352 1.3438-5.3906 0-2.3516-0.44922-4.1445-1.3438-5.375-0.88672-1.2383-2.1719-1.8594-3.8594-1.8594-1.6992 0-3 0.625-3.9062 1.875-0.89844 1.2422-1.3438 3.0273-1.3438 5.3594 0 2.3438 0.44531 4.1367 1.3438 5.375 0.90625 1.2422 2.207 1.8594 3.9062 1.8594zm-5.25-15.984c1.082-1.4375 2.2852-2.5 3.6094-3.1875 1.3203-0.6875 2.8438-1.0312 4.5625-1.0312 3.0508 0 5.5508 1.2148 7.5 3.6406 1.957 2.418 2.9375 5.5273 2.9375 9.3281 0 3.8125-0.98047 6.9297-2.9375 9.3438-1.9492 2.418-4.4492 3.625-7.5 3.625-1.7188 0-3.2422-0.33984-4.5625-1.0156-1.3242-0.6875-2.5273-1.7539-3.6094-3.2031v3.5781h-7.8906v-34.312h7.8906z"
         id="path20" />
    </symbol>
    <symbol
       id="a"
       overflow="visible">
      <path
         d="m0.54688-24.688h7.8906l6.6406 16.75 5.6406-16.75h7.9062l-10.391 27.031c-1.043 2.7383-2.2617 4.6562-3.6562 5.75-1.3867 1.1016-3.2188 1.6562-5.5 1.6562h-4.5625v-5.1875h2.4688c1.3438 0 2.3164-0.21484 2.9219-0.64062 0.61328-0.42969 1.0859-1.1953 1.4219-2.2969l0.21875-0.67188z"
         id="path23" />
    </symbol>
    <symbol
       id="d"
       overflow="visible">
      <path
         d="m4.1406-32.922h22.906v6.4219h-14.406v6.125h13.547v6.4219h-13.547v7.5312h14.906v6.4219h-23.406z"
         id="path26" />
    </symbol>
    <symbol
       id="l"
       overflow="visible">
      <path
         d="m3.5312-9.6094v-15.078h7.9375v2.4688c0 1.3359-0.011719 3.0117-0.03125 5.0312-0.011719 2.0234-0.015625 3.3711-0.015625 4.0469 0 1.9805 0.050781 3.4062 0.15625 4.2812 0.10156 0.875 0.28125 1.5117 0.53125 1.9062 0.32031 0.52344 0.74219 0.92188 1.2656 1.2031 0.51953 0.28125 1.1172 0.42188 1.7969 0.42188 1.6445 0 2.9375-0.62891 3.875-1.8906 0.94531-1.2695 1.4219-3.0312 1.4219-5.2812v-12.188h7.8906v24.688h-7.8906v-3.5781c-1.1992 1.4492-2.4648 2.5156-3.7969 3.2031-1.3242 0.67578-2.7891 1.0156-4.3906 1.0156-2.8555 0-5.0273-0.875-6.5156-2.625-1.4922-1.75-2.2344-4.2891-2.2344-7.625z"
         id="path29" />
    </symbol>
    <symbol
       id="k"
       overflow="visible">
      <path
         d="m23.75-23.922v6.4375c-1.0742-0.73828-2.1523-1.2812-3.2344-1.625-1.0859-0.35156-2.2031-0.53125-3.3594-0.53125-2.2109 0-3.9297 0.64844-5.1562 1.9375-1.2188 1.2812-1.8281 3.0742-1.8281 5.375 0 2.3125 0.60938 4.1172 1.8281 5.4062 1.2266 1.2812 2.9453 1.9219 5.1562 1.9219 1.2266 0 2.3945-0.17969 3.5-0.54688 1.1133-0.375 2.1445-0.92188 3.0938-1.6406v6.4531c-1.2422 0.46094-2.4961 0.80078-3.7656 1.0312-1.2734 0.22656-2.5469 0.34375-3.8281 0.34375-4.4492 0-7.9336-1.1406-10.453-3.4219-2.5117-2.2891-3.7656-5.4727-3.7656-9.5469 0-4.0703 1.2539-7.25 3.7656-9.5312 2.5195-2.2891 6.0039-3.4375 10.453-3.4375 1.3008 0 2.5781 0.11719 3.8281 0.34375 1.2578 0.23047 2.5156 0.57422 3.7656 1.0312z"
         id="path32" />
    </symbol>
    <symbol
       id="j"
       overflow="visible">
      <path
         d="m3.7969-34.312h7.8906v34.312h-7.8906z"
         id="path35" />
    </symbol>
    <symbol
       id="i"
       overflow="visible">
      <path
         d="m11.688-3.5781v12.969h-7.8906v-34.078h7.8906v3.6094c1.082-1.4375 2.2852-2.5 3.6094-3.1875 1.3203-0.6875 2.8438-1.0312 4.5625-1.0312 3.0508 0 5.5508 1.2148 7.5 3.6406 1.957 2.418 2.9375 5.5273 2.9375 9.3281 0 3.8125-0.98047 6.9297-2.9375 9.3438-1.9492 2.418-4.4492 3.625-7.5 3.625-1.7188 0-3.2422-0.33984-4.5625-1.0156-1.3242-0.6875-2.5273-1.7539-3.6094-3.2031zm5.25-15.984c-1.6992 0-3 0.625-3.9062 1.875-0.89844 1.2422-1.3438 3.0273-1.3438 5.3594 0 2.3438 0.44531 4.1367 1.3438 5.375 0.90625 1.2422 2.207 1.8594 3.9062 1.8594 1.6875 0 2.9727-0.61328 3.8594-1.8438 0.89453-1.2383 1.3438-3.0352 1.3438-5.3906 0-2.3516-0.44922-4.1445-1.3438-5.375-0.88672-1.2383-2.1719-1.8594-3.8594-1.8594z"
         id="path38" />
    </symbol>
  </defs>
  <g
     id="g101"
     transform="translate(0,16.5)"
     style="fill:#294929;fill-opacity:1">
    <path
       d="m 187.42,397.42 c -34.863,0 -63.227,28.371 -63.227,63.227 0,34.856 28.359,63.227 63.227,63.227 34.863,0 63.227,-28.371 63.227,-63.227 0,-34.856 -28.359,-63.227 -63.227,-63.227 z m -45.16,63.227 c 0,-14.695 7.1641,-27.648 18.066,-35.895 v 71.797 C 149.424,488.2951 142.26,475.342 142.26,460.647 Z m 36.129,44.25 v -88.5 c 2.918,-0.59375 5.9453,-0.91016 9.0312,-0.91016 3.0898,0 6.1133,0.31641 9.0312,0.91406 v 88.5 c -2.9141,0.59375 -5.9414,0.90625 -9.0312,0.90625 -3.0859,0 -6.1133,-0.3125 -9.0312,-0.91016 z m 36.129,-8.3555 v -71.797 c 10.902,8.2539 18.066,21.207 18.066,35.895 0,14.688 -7.1641,27.656 -18.066,35.902 z"
       id="path43"
       style="fill:#294929;fill-opacity:1" />
    <path
       d="M 557.74,397.42 H 431.29 c -9.9609,0 -18.066,8.1016 -18.066,18.066 v 18.066 c 0,9.9609 8.1016,18.066 18.066,18.066 h 126.45 c 9.9609,0 18.066,-8.1016 18.066,-18.066 v -18.066 c -0.004,-9.9648 -8.1055,-18.066 -18.066,-18.066 z m -126.45,36.129 v -18.066 h 126.45 l 0.008,18.066 z"
       id="path49"
       style="fill:#294929;fill-opacity:1" />
    <path
       d="m 630,160.48 c 0,-15.059 -4.832,-29.336 -13.648,-41.215 L 614.0043,60.691 C 612.6488,26.66 584.8953,-0.004 550.8323,-0.004 h -401.66 c -34.062,0 -61.816,26.664 -63.172,60.695 l -15.996,399.95 c 0,19.879 7.7422,38.578 21.805,52.641 l 33.492,33.484 c 8.5234,8.5234 19.871,13.23 31.926,13.23 h 385.56 c 12.059,0 23.402,-4.707 31.93,-13.23 l 33.492,-33.484 c 14.062,-14.07 21.805,-32.762 21.793,-53 l -10.422,-260.52 c 6.7578,-11.852 10.426,-25.273 10.426,-39.285 z M 557.742,90.39 c -13.902,0.19141 -27.352,4.3008 -38.945,12.023 l -6.2148,4.1445 -6.2148,-4.1445 c -11.879,-7.9141 -25.688,-12.094 -39.949,-12.094 -19.238,0 -37.32,7.4961 -50.926,21.09 -13.105,13.105 -20.324,30.527 -20.324,49.07 0,13.586 3.4219,26.637 9.7891,38.223 h -23.023 l -24.016,-36.02 -23.672,47.348 -41.574,-145.5 -27.098,198.71 -30.684,-107.41 -30.52,61.039 -12.121,-18.164 h -49.992 V 63.225 c 0,-4.9766 4.0547,-9.0312 9.0312,-9.0312 h 397.42 c 4.9766,0 9.0312,4.0547 9.0312,9.0312 z m -415.48,126.38 h 40.328 l 24.016,36.02 23.672,-47.348 41.574,145.5 27.098,-198.71 30.684,107.41 30.52,-61.039 12.117,18.168 h 46.254 l 94.062,94.062 45.16,-45.16 v 86.582 c 0,4.9844 -4.0547,9.0312 -9.0312,9.0312 h -397.42 c -4.9766,0 -9.0312,-4.0469 -9.0312,-9.0312 z m 370.32,68.52 -68.52,-68.52 h 43.082 c 3.7383,10.488 13.676,18.066 25.434,18.066 14.938,0 27.098,-12.156 27.098,-27.098 0,-14.938 -12.156,-27.098 -27.098,-27.098 -11.762,0 -21.695,7.5781 -25.434,18.066 h -60.551 c -8.6445,-10.832 -13.367,-24.164 -13.367,-38.227 0,-13.711 5.3398,-26.602 15.039,-36.301 10.188,-10.188 23.738,-15.805 38.152,-15.805 10.684,0 21.035,3.1328 29.926,9.0586 l 16.238,10.84 16.238,-10.82 c 8.8984,-5.9375 19.25,-9.0703 29.934,-9.0703 14.406,0 27.953,5.6172 38.152,15.805 9.6914,9.6953 15.027,22.582 15.027,36.293 0,16.41 -6.3945,31.84 -17.992,43.445 z m -9.0352,-77.551 c 0,-4.9766 4.0547,-9.0312 9.0312,-9.0312 4.9765,0 9.0312,4.0547 9.0312,9.0312 0,4.9766 -4.0547,9.0312 -9.0312,9.0312 -4.9727,0 -9.0312,-4.0547 -9.0312,-9.0312 z m 18.066,280 v 54.195 h -18.066 v -54.195 z m -36.129,54.191 h -18.066 v -54.195 h 18.066 z m -36.129,0 h -18.066 v -54.195 h 18.066 z m 90.32,0 v -54.195 h 18.066 v 49.66 c -4.4062,2.9219 -9.6484,4.5352 -14.965,4.5352 z m 55.75,-41.422 -19.621,19.621 v -32.391 c 0,-9.9609 -8.1016,-18.066 -18.066,-18.066 h -126.45 c -9.9609,0 -18.066,8.1016 -18.066,18.066 v 54.195 l -256,-0.004 c -7.1367,0 -14.117,-2.8906 -19.156,-7.9375 l -33.492,-33.484 c -10.648,-10.656 -16.508,-24.809 -16.52,-39.504 l 15.988,-399.589996 c 0.96484,-24.312 20.793,-43.352 45.125,-43.352 h 401.67 c 24.332,0 44.148,19.039 45.125,43.355 l 1.6094,40.292996 c -6.7031,-4.308596 -14.035,-7.414096 -21.77,-9.285196 v -29.203 c 0,-14.938 -12.156,-27.098 -27.098,-27.098 h -397.42 c -14.938,0 -27.094,12.156 -27.094,27.098 V 352.25139 c 0,14.938 12.156,27.098 27.098,27.098 h 397.42 c 14.938,0 27.098,-12.156 27.098,-27.098 l -0.004,-104.65 26.547,-26.547 9.582,239.58 c 0,15.059 -5.8594,29.211 -16.508,39.867 z"
       id="path51"
       style="fill:#294929;fill-opacity:1" />
    <path
       d="m 160.32,72.258 h 36.129 V 90.324 H 160.32 Z"
       id="path53"
       style="fill:#294929;fill-opacity:1" />
    <path
       d="m 214.52,72.258 h 36.129 V 90.324 H 214.52 Z"
       id="path55"
       style="fill:#294929;fill-opacity:1" />
    <path
       d="m 160.32,108.39 h 90.324 v 18.066 H 160.32 Z"
       id="path57"
       style="fill:#294929;fill-opacity:1" />
    <path
       d="m 160.32,144.52 h 18.066 v 18.066 H 160.32 Z"
       id="path59"
       style="fill:#294929;fill-opacity:1" />
    <path
       d="m 196.45,144.52 h 18.066 v 18.066 H 196.45 Z"
       id="path61"
       style="fill:#294929;fill-opacity:1" />
    <path
       d="m 160.32,325.16 h 18.066 v 18.066 H 160.32 Z"
       id="path63"
       style="fill:#294929;fill-opacity:1" />
    <path
       d="m 196.45,325.16 h 18.066 v 18.066 H 196.45 Z"
       id="path65"
       style="fill:#294929;fill-opacity:1" />
    <path
       d="M 467.42,325.16 H 449.358 V 270.969 H 431.292 V 325.16 H 413.23 v -72.258 h -18.066 v 72.258 h -18.062 v -36.129 h -18.066 v 36.129 h -18.062 v 18.066 h 126.45 z"
       id="path67"
       style="fill:#294929;fill-opacity:1" />
  </g>
</svg>
